<?xml version="1.0" encoding="utf-8"?>
<!-- Generator: Adobe Illustrator 22.1.0, SVG Export Plug-In . SVG Version: 6.00 Build 0)  -->
<svg version="1.1" id="Capa_1" xmlns="http://www.w3.org/2000/svg" xmlns:xlink="http://www.w3.org/1999/xlink" x="0px" y="0px"
	 viewBox="0 0 136.2 103.3" style="enable-background:new 0 0 136.2 103.3;" xml:space="preserve">
<style type="text/css">
	.st0{fill:#4981F2;}
	.st1{fill:#FFFFFF;}
	.st2{fill:#B2B2B2;}
	.st3{fill:#4981F2;}
	.st4{fill:#BABFD1;}
	.st5{fill:#FFFFFF;}
</style>
<g>
	<g>
		<path class="st0" d="M10,94.2c-0.3-0.1-0.5-0.1-0.6-0.2c-0.1-0.1-0.2-0.2-0.2-0.2c0-0.1,0.1-0.2,0.2-0.3c0.1-0.1,0.2-0.2,0.3-0.2
			c0,0,0.1,0,0.2,0.1c0.3,0.2,0.7,0.2,1.1,0.2c0.3,0,0.7-0.1,1-0.3c0.3-0.2,0.6-0.5,0.7-1c0.2-0.4,0.1-0.8,0-0.9
			c-0.2-0.2-0.5-0.3-0.9-0.3h-0.3c-0.1,0-0.1,0-0.1-0.1c0,0,0-0.1,0-0.2l0-0.1c0-0.1,0.1-0.2,0.1-0.2c0,0,0.1-0.1,0.2-0.1h0.3
			c0.3,0,0.6-0.1,0.8-0.2c0.2-0.1,0.4-0.3,0.6-0.5c0.1-0.2,0.2-0.4,0.3-0.5c0.1-0.2,0.1-0.4,0-0.6c-0.1-0.2-0.4-0.3-0.7-0.3
			c-0.3,0-0.5,0-0.7,0.1c-0.2,0-0.4,0.1-0.5,0.2c-0.1,0-0.2,0.1-0.2,0.1c0,0-0.1-0.1-0.1-0.2c0-0.1,0-0.2,0-0.3
			c0-0.1,0.3-0.2,0.7-0.3c0.4-0.1,0.8-0.1,1.1-0.1c0.6,0,1,0.1,1.2,0.4c0.2,0.3,0.3,0.7,0.1,1.2c-0.1,0.3-0.3,0.6-0.5,0.8
			c-0.3,0.2-0.5,0.4-0.8,0.5l0,0c0.3,0.1,0.5,0.3,0.6,0.6s0.1,0.7,0,1.1c-0.2,0.4-0.4,0.8-0.7,1.1c-0.3,0.3-0.6,0.5-1,0.6
			c-0.4,0.1-0.7,0.2-1,0.2C10.6,94.3,10.3,94.3,10,94.2z"/>
		<path class="st0" d="M19.4,94.2c0,0,0-0.1,0-0.2l2.1-5.9c0-0.1,0.1-0.2,0.1-0.2c0.1,0,0.1-0.1,0.2-0.1h1.9c0.9,0,1.5,0.3,1.8,0.8
			c0.3,0.5,0.3,1.3-0.1,2.4c-0.4,1.1-0.9,1.9-1.6,2.5c-0.7,0.5-1.5,0.8-2.3,0.8h-1.9C19.5,94.2,19.4,94.2,19.4,94.2z M21.6,93.6
			c0.6,0,1.2-0.2,1.7-0.6c0.5-0.4,0.9-1,1.2-1.9c0.3-0.9,0.3-1.5,0.1-1.9s-0.7-0.6-1.3-0.6h-1.3l-1.8,5H21.6z"/>
		<path class="st0" d="M37.9,94.2c-0.3-0.1-0.5-0.2-0.6-0.3c-0.1-0.1-0.1-0.2-0.1-0.2c0-0.1,0.1-0.2,0.2-0.3
			c0.1-0.1,0.2-0.2,0.3-0.2c0,0,0.1,0,0.2,0.1c0.2,0.1,0.3,0.2,0.5,0.3c0.2,0.1,0.4,0.1,0.7,0.1c0.4,0,0.7-0.1,1-0.3
			c0.3-0.2,0.5-0.5,0.6-0.8c0.1-0.2,0.1-0.4,0-0.6c-0.1-0.1-0.2-0.3-0.3-0.4c-0.1-0.1-0.4-0.2-0.6-0.3c-0.3-0.1-0.5-0.3-0.7-0.4
			c-0.2-0.1-0.3-0.3-0.4-0.5c-0.1-0.2,0-0.5,0.1-0.9c0.1-0.3,0.3-0.6,0.6-0.9c0.3-0.3,0.6-0.5,0.9-0.6c0.4-0.1,0.7-0.2,1.1-0.2
			c0.2,0,0.4,0,0.7,0.1c0.2,0.1,0.4,0.1,0.5,0.2c0.1,0.1,0.1,0.2,0.1,0.2c0,0.1-0.1,0.2-0.2,0.3s-0.2,0.2-0.2,0.2c0,0-0.1,0-0.1,0
			c0,0-0.1-0.1-0.1-0.1c-0.3-0.2-0.5-0.2-0.9-0.2c-0.4,0-0.7,0.1-1,0.3c-0.3,0.2-0.5,0.4-0.6,0.8c-0.1,0.2-0.1,0.4,0,0.5
			c0.1,0.1,0.2,0.2,0.3,0.3c0.1,0.1,0.3,0.2,0.6,0.3c0.3,0.1,0.6,0.3,0.8,0.4c0.2,0.1,0.3,0.3,0.4,0.6c0.1,0.2,0,0.6-0.1,1
			c-0.2,0.6-0.5,1-1,1.3c-0.5,0.3-1,0.5-1.7,0.5C38.5,94.3,38.2,94.3,37.9,94.2z"/>
		<path class="st0" d="M48.2,94.1l1.9-5.5h-1.8c-0.1,0-0.1,0-0.1-0.1c0,0,0-0.1,0-0.2l0.1-0.1c0-0.1,0.1-0.2,0.1-0.2
			s0.1-0.1,0.2-0.1H53c0.1,0,0.1,0,0.1,0.1c0,0,0,0.1,0,0.2L53,88.2c0,0.1-0.1,0.2-0.1,0.2c0,0-0.1,0.1-0.2,0.1H51L49,94.1
			c0,0.1-0.2,0.2-0.4,0.2h-0.1C48.3,94.3,48.2,94.2,48.2,94.1z"/>
		<path class="st0" d="M56.8,94.1l2.1-6c0-0.1,0.1-0.2,0.1-0.2c0.1,0,0.1-0.1,0.2-0.1h1.5c0.7,0,1.2,0.1,1.5,0.4
			c0.3,0.3,0.3,0.7,0.1,1.2c-0.1,0.4-0.3,0.7-0.6,1c-0.3,0.3-0.6,0.5-1,0.6l0,0c0.2,0.1,0.3,0.2,0.3,0.4c0.1,0.2,0.1,0.4,0.1,0.8
			l0.1,1.8c0,0.1,0,0.1,0,0.1c0,0.1-0.2,0.1-0.4,0.1h-0.1c-0.1,0-0.2,0-0.2,0c-0.1,0-0.1-0.1-0.1-0.1l-0.1-1.8
			c0-0.3-0.1-0.6-0.3-0.7c-0.2-0.1-0.4-0.2-0.8-0.2h-0.8l-0.9,2.6c0,0.1-0.2,0.2-0.4,0.2h-0.1C56.9,94.3,56.8,94.2,56.8,94.1z
			 M60,90.7c0.2,0,0.4-0.1,0.6-0.2c0.2-0.1,0.4-0.2,0.6-0.4c0.2-0.2,0.3-0.4,0.4-0.6c0.1-0.4,0.1-0.6,0-0.8
			c-0.2-0.2-0.4-0.3-0.8-0.3h-1.1l-0.8,2.2H60z"/>
		<path class="st0" d="M67.3,94.2c0,0,0-0.1,0-0.2l2.1-5.9c0-0.1,0.1-0.2,0.1-0.2c0.1,0,0.1-0.1,0.2-0.1h3.2c0.1,0,0.1,0,0.1,0.1
			c0,0,0,0.1,0,0.2L73,88.2c0,0.1-0.1,0.2-0.1,0.2c0,0-0.1,0.1-0.2,0.1H70l-0.7,2.1h2.4c0.1,0,0.1,0,0.1,0.1c0,0,0,0.1,0,0.2
			L71.7,91c0,0.1-0.1,0.2-0.1,0.2c0,0-0.1,0.1-0.2,0.1H69l-0.8,2.2h2.7c0.1,0,0.1,0,0.1,0.1c0,0,0,0.1,0,0.2L71,94
			c0,0.1-0.1,0.2-0.1,0.2c0,0-0.1,0.1-0.2,0.1h-3.2C67.4,94.2,67.3,94.2,67.3,94.2z"/>
		<path class="st0" d="M76.3,94.1c0,0,0-0.1,0.1-0.1l4.3-6c0.1-0.1,0.2-0.1,0.4-0.1h0.3c0.2,0,0.3,0,0.3,0.1l0.1,6c0,0,0,0.1,0,0.1
			c0,0.1-0.2,0.2-0.4,0.2h-0.1c-0.2,0-0.3,0-0.3-0.1l0-1.5h-2.7l-1.1,1.5c-0.1,0.1-0.2,0.1-0.4,0.1h0C76.4,94.3,76.3,94.2,76.3,94.1
			z M80.8,91.9l0-2.7c0-0.1,0-0.3,0.1-0.5h0c-0.1,0.2-0.2,0.4-0.3,0.5l-1.9,2.7H80.8z"/>
		<path class="st0" d="M90.7,92.3l-0.6-2.8c0-0.1,0-0.2-0.1-0.4l0,0c0,0.1-0.1,0.3-0.2,0.5l-1.6,4.5c0,0.1-0.2,0.2-0.4,0.2h-0.1
			c-0.2,0-0.3-0.1-0.3-0.2l2.1-6.1c0-0.1,0.2-0.2,0.4-0.2h0.3c0.2,0,0.3,0.1,0.3,0.2l0.7,3c0,0.2,0.1,0.4,0,0.6
			c0.1-0.2,0.3-0.4,0.5-0.6l2.7-3c0.1-0.1,0.2-0.2,0.4-0.2h0.3c0.2,0,0.3,0.1,0.3,0.2l-2.1,6.1c0,0.1-0.2,0.2-0.4,0.2h-0.1
			c-0.2,0-0.3-0.1-0.3-0.2l1.5-4.4c0.1-0.2,0.1-0.4,0.2-0.5l0,0c-0.2,0.2-0.3,0.3-0.4,0.4l-2.6,2.8c-0.1,0.1-0.2,0.1-0.2,0.1h-0.4
			C90.8,92.5,90.8,92.4,90.7,92.3z"/>
		<path class="st0" d="M100.1,94.1l2.1-6.1c0-0.1,0.2-0.2,0.4-0.2h0.1c0.2,0,0.3,0.1,0.3,0.2l-2.1,6.1c0,0.1-0.2,0.2-0.4,0.2h-0.1
			C100.1,94.3,100,94.2,100.1,94.1z"/>
		<path class="st0" d="M107.4,94.1l2.1-6.1c0-0.1,0.2-0.2,0.4-0.2h0.2c0.1,0,0.2,0,0.2,0c0,0,0.1,0.1,0.1,0.1l1.4,4.4
			c0.1,0.2,0.1,0.3,0.1,0.6l0,0c0-0.1,0.1-0.3,0.2-0.6l1.5-4.2c0-0.1,0.2-0.2,0.4-0.2h0.1c0.2,0,0.3,0.1,0.3,0.2l-2.1,6.1
			c0,0.1-0.2,0.2-0.4,0.2h-0.2c-0.2,0-0.3,0-0.3-0.1l-1.4-4.5c-0.1-0.2-0.1-0.3-0.1-0.6l0,0c0,0.1-0.1,0.3-0.2,0.6l-1.5,4.3
			c0,0.1-0.2,0.2-0.4,0.2h-0.1C107.5,94.3,107.4,94.2,107.4,94.1z"/>
		<path class="st0" d="M124.4,91c0,0,0,0.1,0,0.2l-0.9,2.4c-0.1,0.2-0.3,0.4-0.8,0.5s-0.9,0.2-1.5,0.2c-0.9,0-1.5-0.3-1.8-0.8
			c-0.3-0.5-0.3-1.3,0.1-2.4c0.8-2.2,2.2-3.3,4.1-3.3c0.3,0,0.6,0,0.8,0.1c0.3,0.1,0.4,0.1,0.6,0.2c0.1,0.1,0.2,0.2,0.2,0.3
			c0,0.1-0.1,0.2-0.2,0.3c-0.1,0.1-0.2,0.2-0.3,0.2c0,0-0.1,0-0.2-0.1c-0.1-0.1-0.3-0.1-0.4-0.2c-0.2-0.1-0.4-0.1-0.7-0.1
			c-0.8,0-1.4,0.2-1.9,0.6c-0.5,0.4-0.9,1.1-1.2,1.9c-0.3,0.8-0.3,1.4-0.2,1.9c0.1,0.5,0.6,0.7,1.4,0.7c0.2,0,0.5,0,0.7,0
			c0.2,0,0.4-0.1,0.5-0.1l0.6-1.9h-1.1c-0.1,0-0.1,0-0.1-0.1c0,0,0-0.1,0-0.2l0.1-0.1c0-0.1,0.1-0.2,0.1-0.2c0,0,0.1-0.1,0.2-0.1
			h1.6C124.4,90.9,124.4,91,124.4,91z"/>
	</g>
	<g>
		<path class="st1" d="M23,76.3h-7.1c-0.2,0-0.4-0.1-0.5-0.2c-0.1-0.2-0.2-0.3-0.2-0.6l0.7-2.8h9.4l1.2-5.3h-9.3l0.7-3
			c0.1-0.2,0.2-0.3,0.3-0.4c0.1-0.1,0.3-0.2,0.4-0.2h4.5h9.3l1.2-5.3H17.5c-2.4,0-4,1.3-4.9,3.8L9.5,75.7c-0.3,1.6,0,2.9,1,4.1
			s2.3,1.8,3.9,1.8H28c0.4-1.9,0.9-3.7,1.2-5.3L23,76.3L23,76.3z"/>
		<path class="st1" d="M39.8,58.6c-2.3,0-3.9,1.3-4.8,3.8l-4.7,19.2h5.4l1.5-6.3h9.8l-1.5,6.3H51l5.6-23H39.8z M48.4,70h-9.8
			l1.4-5.6c0-0.2,0.1-0.3,0.3-0.4c0.1-0.1,0.3-0.2,0.4-0.2h9.3L48.4,70z"/>
		<path class="st1" d="M66.7,67.4l-1.2,5.3h5.9l-0.7,3c0,0.2-0.1,0.3-0.2,0.4c-0.1,0.1-0.3,0.2-0.4,0.2h-8.9c-0.2,0-0.4-0.1-0.5-0.2
			s-0.2-0.3-0.2-0.6l2.6-11.1c0.1-0.2,0.2-0.3,0.3-0.4s0.3-0.2,0.4-0.2h9.8h5.7v0.1l1.3-5.3H62.9c-2.4,0-4,1.3-4.9,3.8l-3.1,13.3
			c-0.3,1.6,0,2.9,1,4.1c1,1.2,2.3,1.8,3.9,1.8h11.3c2.4,0,4-1.3,4.9-3.8c0.2-0.7,0.3-1.4,0.5-2c0.8-3.4,1.5-6.2,2-8.3h-4.9H66.7z"
			/>
		<path class="st1" d="M92.5,76.3h-7.2c-0.2,0-0.4-0.1-0.5-0.2s-0.2-0.3-0.2-0.6l1-4.3h0l2.9-12.6h-1.6c-1.2,0-2.2,0.3-3.2,1
			c-0.9,0.7-1.5,1.6-1.8,2.8l-3.1,13.3c-0.3,1.6,0,2.9,1,4.1c1,1.2,2.4,1.8,4,1.8h13.7c0.1-0.6,0.3-1.1,0.4-1.7
			c0.3-1.3,0.6-2.5,0.8-3.6L92.5,76.3L92.5,76.3z"/>
		<path class="st1" d="M109.8,64c0.1-0.1,0.3-0.2,0.4-0.2h4.5h9.3l1.2-5.3h-15.9c-2.4,0-4,1.3-4.9,3.8l-3.1,13.3
			c-0.3,1.6,0,2.9,1,4.1s2.3,1.8,3.9,1.8h13.6c0.4-1.9,0.9-3.7,1.2-5.3h-6.3v0h-7.1c-0.2,0-0.4-0.1-0.5-0.2
			c-0.1-0.2-0.2-0.3-0.2-0.6l0.7-2.8h9.4l1.2-5.3h-9.3l0.7-3C109.6,64.2,109.7,64.1,109.8,64z"/>
	</g>
	<path d="M123,23.2c-1.6-1.9-6.8-2.8-6.8-2.8s-6.2-0.9-14.1-1.7c-8.6-0.9-10.1,0.2-13.4,1.6c-1.6,0.7-5.3,2.2-6.1,2.5
		c8.2,6.2,17.7,12.5,25.8,11.1c1.6-0.9,5.7-3,7-3.5c6-2.5,11.7,2.6,11.7,2.6S124.6,25.1,123,23.2z"/>
	<path class="st0" d="M59.3,25.3c-16.7-15.7-33.8-6.5-33.8-6.5l-6.3,3.1c1.8-0.5,4.1-0.9,6.7-0.9c6.4-0.5,15.1,1,23.8,9.1
		C63.2,42.7,73.9,47.9,81.2,48c1.3-0.2,2.8-0.7,4.4-1.5l6.8-3.4C85.1,43.8,73.8,38.8,59.3,25.3z"/>
	<path class="st0" d="M46.6,31.6C29.8,16,12.8,25.2,12.8,25.2l-5.4,2.7c2.2-1,17.9-7.9,33.5,6.6c21.1,19.7,31.4,15.7,38.8,15l0,0
		C72.4,50.2,61.1,45.2,46.6,31.6z"/>
	<path class="st0" d="M77.3,23.6L77.3,23.6C77.3,23.6,77.3,23.6,77.3,23.6c-0.1-0.1-0.2-0.2-0.4-0.3c-2.7-2.2-20.1-15.5-45-7.7
		c6.4-1.6,18.1-2.4,29.6,8.4c11.1,10.4,20.3,15.8,27.4,17.6c0.8,0.2,4.8,0.9,9.4-1.5l6.8-3.4C98.7,37.3,89.3,33.6,77.3,23.6z"/>
</g>
</svg>
